<svg width="369" height="286" viewBox="0 0 369 286" fill="none" xmlns="http://www.w3.org/2000/svg">
<path fill-rule="evenodd" clip-rule="evenodd" d="M48.6511 0.0448914C35.3962 0.0448914 24.6511 10.79 24.6511 24.0449V24.0449C24.6511 24.8404 24.1309 25.5384 23.3808 25.8033C10.1715 30.4687 0.706787 43.0647 0.706787 57.8713C0.706787 69.5864 6.63179 79.9176 15.6487 86.0319C20.5816 89.3768 24.6511 94.424 24.6511 100.384V100.384C24.6511 106.344 20.5816 111.391 15.6487 114.736C6.63179 120.851 0.706787 131.182 0.706787 142.897C0.706787 154.612 6.6318 164.943 15.6487 171.057C20.5816 174.402 24.6511 179.45 24.6511 185.41V185.41C24.6511 191.37 20.5816 196.417 15.6487 199.762C6.63179 205.876 0.706787 216.207 0.706787 227.922C0.706787 242.729 10.1715 255.325 23.3808 259.99C24.1309 260.255 24.6511 260.953 24.6511 261.749V261.749C24.6511 275.004 35.3962 285.749 48.6511 285.749H344.236C357.491 285.749 368.236 275.004 368.236 261.749V24.0449C368.236 10.7901 357.491 0.0448914 344.236 0.0448914H48.6511Z" fill="url(#paint0_linear_2420_10196)"/>
<defs>
<linearGradient id="paint0_linear_2420_10196" x1="171.782" y1="81.5496" x2="368.237" y2="285.749" gradientUnits="userSpaceOnUse">
<stop stop-color="#6E19FF"/>
<stop offset="1" stop-color="#DD19FF"/>
</linearGradient>
</defs>
</svg>
