<svg width="50" height="51" viewBox="0 0 50 51" fill="none" xmlns="http://www.w3.org/2000/svg">
<ellipse cx="24.7205" cy="25.5736" rx="24.5" ry="25" fill="black"/>
<path d="M35.7192 23.2074C35.7192 21.1398 29.9611 21.0076 29.1906 20.1046C28.4215 19.2029 26.3095 14.5747 24.7203 14.5747C23.1312 14.5747 21.0247 19.1864 20.2556 20.077C19.4851 20.9691 13.7214 21.1287 13.7214 23.2074C13.7214 24.8249 16.2187 27.1252 17.3235 28.5005C19.7632 24.6397 24.0048 22.2931 28.5701 22.2782C23.0706 22.2782 19.3805 27.5713 17.6372 30.8118C17.3015 32.622 16.7291 35.4275 17.296 35.9672C19.3323 37.8999 23.7476 34.5864 24.7203 34.5864C25.6931 34.5864 30.1097 37.8876 32.1447 35.9672C32.9083 35.2417 31.5943 30.3328 31.5943 29.409C31.5943 28.484 35.7192 25.2765 35.7192 23.2074Z" fill="url(#paint0_linear_2420_10207)"/>
<defs>
<linearGradient id="paint0_linear_2420_10207" x1="23.9608" y1="20.8502" x2="38.7606" y2="32.8085" gradientUnits="userSpaceOnUse">
<stop stop-color="#6E19FF"/>
<stop offset="1" stop-color="#DD19FF"/>
</linearGradient>
</defs>
</svg>
