<svg width="370" height="393" viewBox="0 0 370 393" fill="none" xmlns="http://www.w3.org/2000/svg">
<mask id="path-1-inside-1_2420_10205" fill="white">
<path fill-rule="evenodd" clip-rule="evenodd" d="M115.912 40.5605C127.568 40.5605 137.049 31.6827 143.497 21.9731C152.291 8.72984 167.341 0 184.429 0C201.518 0 216.568 8.72983 225.362 21.9731C231.81 31.6827 241.291 40.5605 252.947 40.5605H346C359.255 40.5605 370 51.3056 370 64.5605V368.654C370 381.909 359.255 392.654 346 392.654H24.4295C11.1746 392.654 0.429443 381.909 0.429443 368.654V64.5605C0.429443 51.3056 11.1746 40.5605 24.4294 40.5605H115.912Z"/>
</mask>
<path fill-rule="evenodd" clip-rule="evenodd" d="M115.912 40.5605C127.568 40.5605 137.049 31.6827 143.497 21.9731C152.291 8.72984 167.341 0 184.429 0C201.518 0 216.568 8.72983 225.362 21.9731C231.81 31.6827 241.291 40.5605 252.947 40.5605H346C359.255 40.5605 370 51.3056 370 64.5605V368.654C370 381.909 359.255 392.654 346 392.654H24.4295C11.1746 392.654 0.429443 381.909 0.429443 368.654V64.5605C0.429443 51.3056 11.1746 40.5605 24.4294 40.5605H115.912Z" fill="url(#paint0_linear_2420_10205)"/>
<path d="M143.497 21.9731L142.664 21.4199L143.497 21.9731ZM144.33 22.5263C152.947 9.55022 167.69 1 184.429 1V-1C166.992 -1 151.636 7.90946 142.664 21.4199L144.33 22.5263ZM184.429 1C201.169 1 215.912 9.55021 224.529 22.5263L226.195 21.4199C217.223 7.90945 201.867 -1 184.429 -1V1ZM252.947 41.5605H346V39.5605H252.947V41.5605ZM346 41.5605C358.703 41.5605 369 51.8579 369 64.5605H371C371 50.7534 359.807 39.5605 346 39.5605V41.5605ZM369 64.5605V368.654H371V64.5605H369ZM369 368.654C369 381.357 358.703 391.654 346 391.654V393.654C359.807 393.654 371 382.462 371 368.654H369ZM346 391.654H24.4295V393.654H346V391.654ZM24.4295 391.654C11.7269 391.654 1.42944 381.357 1.42944 368.654H-0.570557C-0.570557 382.462 10.6223 393.654 24.4295 393.654V391.654ZM1.42944 368.654V64.5605H-0.570557V368.654H1.42944ZM1.42944 64.5605C1.42944 51.8579 11.7269 41.5605 24.4294 41.5605V39.5605C10.6223 39.5605 -0.570557 50.7534 -0.570557 64.5605H1.42944ZM24.4294 41.5605H115.912V39.5605H24.4294V41.5605ZM224.529 22.5263C231.024 32.3076 240.767 41.5605 252.947 41.5605V39.5605C241.816 39.5605 232.595 31.0578 226.195 21.4199L224.529 22.5263ZM142.664 21.4199C136.264 31.0578 127.043 39.5605 115.912 39.5605V41.5605C128.092 41.5605 137.835 32.3076 144.33 22.5263L142.664 21.4199Z" fill="white" fill-opacity="0.06" mask="url(#path-1-inside-1_2420_10205)"/>
<ellipse cx="254.821" cy="235.242" rx="20.1542" ry="20.0685" fill="url(#paint1_linear_2420_10205)"/>
<ellipse cx="147.866" cy="302.174" rx="12.6221" ry="12.5685" fill="url(#paint2_linear_2420_10205)"/>
<path d="M159.988 302.174C159.988 308.837 154.563 314.242 147.866 314.242C141.169 314.242 135.744 308.837 135.744 302.174C135.744 295.511 141.169 290.105 147.866 290.105C154.563 290.105 159.988 295.511 159.988 302.174Z" stroke="white" stroke-opacity="0.06"/>
<ellipse cx="88.8549" cy="40.0125" rx="20.4846" ry="20.3975" fill="url(#paint3_linear_2420_10205)"/>
<ellipse cx="295.643" cy="100.492" rx="19.8347" ry="19.7504" fill="url(#paint4_linear_2420_10205)"/>
<ellipse cx="69.0763" cy="160.766" rx="14.5856" ry="14.5236" fill="url(#paint5_linear_2420_10205)"/>
<defs>
<linearGradient id="paint0_linear_2420_10205" x1="235.025" y1="148.846" x2="328.085" y2="360.96" gradientUnits="userSpaceOnUse">
<stop stop-color="#6E19FF"/>
<stop offset="1" stop-color="#DD19FF"/>
</linearGradient>
<linearGradient id="paint1_linear_2420_10205" x1="260.363" y1="230.355" x2="269.45" y2="252.52" gradientUnits="userSpaceOnUse">
<stop stop-color="#6E19FF"/>
<stop offset="1" stop-color="#DD19FF"/>
</linearGradient>
<linearGradient id="paint2_linear_2420_10205" x1="140.78" y1="297.437" x2="154.698" y2="308.726" gradientUnits="userSpaceOnUse">
<stop stop-color="#5E00FF"/>
<stop offset="1" stop-color="#FF8C00"/>
</linearGradient>
<linearGradient id="paint3_linear_2420_10205" x1="94.4877" y1="35.0453" x2="103.724" y2="57.5735" gradientUnits="userSpaceOnUse">
<stop stop-color="#5E00FF"/>
<stop offset="1" stop-color="#DD19FF"/>
</linearGradient>
<linearGradient id="paint4_linear_2420_10205" x1="288.695" y1="94.0574" x2="306.38" y2="110.773" gradientUnits="userSpaceOnUse">
<stop stop-color="#5E00FF"/>
<stop offset="1" stop-color="#FF8C00"/>
</linearGradient>
<linearGradient id="paint5_linear_2420_10205" x1="73.087" y1="157.229" x2="79.6634" y2="173.27" gradientUnits="userSpaceOnUse">
<stop stop-color="#5E00FF"/>
<stop offset="1" stop-color="#DD19FF"/>
</linearGradient>
</defs>
</svg>
