<svg width="82" height="82" viewBox="0 0 82 82" fill="none" xmlns="http://www.w3.org/2000/svg">
<circle cx="41.0001" cy="41.1" r="40.4" fill="black"/>
<circle cx="41.0001" cy="41.1" r="28.1522" fill="url(#paint0_linear_2421_10710)"/>
<circle cx="41.0001" cy="41.1" r="27.6522" stroke="white" stroke-opacity="0.06"/>
<path d="M56.2211 37.8255C56.2211 34.9641 48.2526 34.7813 47.1863 33.5315C46.122 32.2837 43.1993 25.879 41.0001 25.879C38.8009 25.879 35.8859 32.2609 34.8215 33.4935C33.7552 34.7279 25.7792 34.9489 25.7792 37.8255C25.7792 40.0639 29.235 43.2472 30.764 45.1503C34.1402 39.8076 40.0099 36.5601 46.3276 36.5396C38.7172 36.5396 33.6105 43.8644 31.1981 48.3489C30.7335 50.854 29.9414 54.7364 30.7259 55.4832C33.5439 58.1579 39.654 53.5725 41.0001 53.5725C42.3463 53.5725 48.4583 58.1407 51.2744 55.4832C52.3311 54.4793 50.5127 47.6859 50.5127 46.4076C50.5127 45.1275 56.2211 40.6888 56.2211 37.8255Z" fill="white"/>
<defs>
<linearGradient id="paint0_linear_2421_10710" x1="48.7414" y1="34.2444" x2="61.5275" y2="65.2991" gradientUnits="userSpaceOnUse">
<stop stop-color="#6E19FF"/>
<stop offset="1" stop-color="#DD19FF"/>
</linearGradient>
</defs>
</svg>
