<svg width="398" height="166" viewBox="0 0 398 166" fill="none" xmlns="http://www.w3.org/2000/svg">
<path fill-rule="evenodd" clip-rule="evenodd" d="M53.9886 0.178604C40.7338 0.178604 29.9886 10.9238 29.9886 24.1786V24.1786C29.9886 27.7335 27.2929 30.6496 23.8981 31.7045C10.0533 36.0066 0 48.9186 0 64.1786C0 74.0496 4.20646 82.9381 10.9246 89.1493C19.8614 97.4118 29.9886 107.118 29.9886 119.289V141.179C29.9886 154.433 40.7338 165.179 53.9886 165.179H373.989C387.243 165.179 397.989 154.433 397.989 141.179V24.1786C397.989 10.9238 387.243 0.178604 373.989 0.178604H53.9886Z" fill="url(#paint0_linear_2420_10206)"/>
<defs>
<linearGradient id="paint0_linear_2420_10206" x1="184" y1="0.178605" x2="330.717" y2="165.179" gradientUnits="userSpaceOnUse">
<stop stop-color="#6E19FF"/>
<stop offset="1" stop-color="#DD19FF"/>
</linearGradient>
</defs>
</svg>
