<svg width="73" height="74" viewBox="0 0 73 74" fill="none" xmlns="http://www.w3.org/2000/svg">
<circle cx="36.5" cy="37.4217" r="26" fill="url(#paint0_linear_2420_10155)"/>
<path d="M38.8081 35.4841C41.0052 37.7171 41.2595 40.1174 38.8242 42.5924C37.3154 44.1248 34.8725 45.0456 31.5107 45.4398C31.3368 45.4606 31.161 45.4597 30.9861 45.4389C29.8043 45.2952 28.9412 44.2449 28.9979 43.0452L29.0102 42.8883L29.0584 42.4912C29.4706 39.2864 30.3631 36.94 31.8123 35.4671C34.2476 32.993 36.6101 33.2521 38.8081 35.4841ZM58.9361 12.027C58.9361 12.0267 58.9363 12.0266 58.9366 12.0266L59.3161 12.1428L59.6877 12.2666C60.145 12.4269 60.5598 12.6893 60.9006 13.0338C61.2415 13.3782 61.4995 13.7958 61.655 14.2547C63.1364 18.5827 62.6656 22.9673 60.2776 27.3142C59.2935 29.1047 58.0342 30.7998 56.5018 32.3984L56.0773 32.8323L55.763 33.1399C55.7065 33.1952 55.6715 33.2688 55.6642 33.3475V33.3475C55.3853 35.9511 53.4104 39.3942 49.7716 43.8459L49.4559 44.2307L48.8745 44.9256C48.2165 45.7064 46.9913 45.489 46.6075 44.5663L46.5621 44.4425L44.5947 38.1636C44.5512 38.0249 44.4628 37.9047 44.3433 37.822V37.822C43.2001 37.0076 42.1113 36.1196 41.0836 35.1636L40.5778 34.6815L40.0825 34.1899C38.6193 32.7009 37.3023 31.075 36.1497 29.3344V29.3344C36.077 29.2213 35.9673 29.1369 35.8393 29.0956L29.412 27.0173C28.4799 26.7148 28.1792 25.5624 28.771 24.8382L28.8495 24.7494L28.9346 24.6699C34.3837 19.909 38.4044 17.5484 41.284 17.7451L41.4693 17.7611V17.7611C41.5373 17.7695 41.6053 17.7458 41.6534 17.6971L41.8201 17.5286C43.1266 16.2296 44.4945 15.1245 45.9249 14.216L46.4033 13.9201L46.8429 13.6629C50.8341 11.3998 54.8858 10.8429 58.9356 12.0273C58.9359 12.0274 58.9361 12.0272 58.9361 12.027V12.027ZM46.7228 21.1692C45.0655 22.8274 45.0712 25.5208 46.736 27.1856C48.4008 28.8504 51.0942 28.8561 52.7524 27.1988C54.4096 25.5406 54.404 22.8473 52.7392 21.1824C51.0744 19.5176 48.381 19.512 46.7228 21.1692Z" fill="white"/>
<defs>
<linearGradient id="paint0_linear_2420_10155" x1="36.5" y1="11.4217" x2="53.6753" y2="56.9411" gradientUnits="userSpaceOnUse">
<stop stop-color="#6E19FF"/>
<stop offset="1" stop-color="#DD19FF"/>
</linearGradient>
</defs>
</svg>
