<svg width="54" height="54" viewBox="0 0 54 54" fill="none" xmlns="http://www.w3.org/2000/svg">
<circle cx="27" cy="26.9966" r="27" fill="black"/>
<path d="M44.9278 18.6322V20.1565H37.2262V24.2876H44.9278V25.812H35.606V23.0158H33.9347V25.812H32.1611V23.0158H21.8359V25.812H20.2157V23.0158H10.6926V24.2876H18.391V25.812H9.07239V18.6953H18.391V20.2227H10.6926V21.4915H20.2157V18.6352H33.9347V21.4915H35.606V18.6352H44.9214L44.9278 18.6322ZM32.1643 20.1565H21.8359V21.4915H32.1643V20.1565ZM11.6153 28.1812V35.361H9.99507V28.1812H11.6153ZM13.44 28.1812V35.361H21.9533V28.1812H13.44ZM20.3331 33.8337H15.0602V29.7056H20.3331V33.8337ZM23.778 28.1812V35.361H32.2881V28.1812H23.778ZM30.6679 33.8337H25.395V29.7056H30.6679V33.8337ZM42.6229 28.1812V35.361H34.1128V28.1812H42.6229ZM35.733 33.8337H41.0027V29.7056H35.7298V33.8367L35.733 33.8337Z" fill="url(#paint0_linear_2420_10231)"/>
<defs>
<linearGradient id="paint0_linear_2420_10231" x1="12.0038" y1="18.6322" x2="42.6816" y2="37.9538" gradientUnits="userSpaceOnUse">
<stop stop-color="#6E19FF"/>
<stop offset="1" stop-color="#DD19FF"/>
</linearGradient>
</defs>
</svg>
