<svg width="24" height="24" viewBox="0 0 24 24" fill="none" xmlns="http://www.w3.org/2000/svg">
<path d="M22 9.84869C22 7.96881 16.7648 7.84867 16.0643 7.02762C15.365 6.20783 13.4449 2 12 2C10.5552 2 8.64 6.19281 7.94071 7.0026C7.24019 7.81362 2 7.95879 2 9.84869C2 11.3193 4.27045 13.4107 5.27495 14.661C7.4931 11.1509 11.3494 9.01736 15.5001 9.00388C10.5001 9.00388 7.14512 13.8162 5.56017 16.7625C5.25493 18.4083 4.73455 20.959 5.24993 21.4496C7.10133 23.2069 11.1156 20.1943 12 20.1943C12.8844 20.1943 16.8999 23.1956 18.7501 21.4496C19.4443 20.79 18.2497 16.3269 18.2497 15.4871C18.2497 14.646 22 11.7298 22 9.84869Z" fill="url(#paint0_linear_2421_10811)"/>
<defs>
<linearGradient id="paint0_linear_2421_10811" x1="15.1294" y1="2" x2="15.1294" y2="22.3095" gradientUnits="userSpaceOnUse">
<stop stop-color="#6E19FF"/>
<stop offset="1" stop-color="#DD19FF"/>
</linearGradient>
</defs>
</svg>
