<svg width="386" height="125" viewBox="0 0 386 125" fill="none" xmlns="http://www.w3.org/2000/svg">
<g clip-path="url(#clip0_2421_10818)">
<mask id="path-1-inside-1_2421_10818" fill="white">
<path fill-rule="evenodd" clip-rule="evenodd" d="M113.221 24.3661C113.221 11.1113 102.475 0.366119 89.2206 0.366119H-15.0103C-28.2651 0.366119 -39.0103 11.1113 -39.0103 24.3661V39.1662C-39.0103 52.4211 -28.2651 63.1662 -15.0103 63.1662H80.7205C93.9754 63.1662 104.721 73.9114 104.721 87.1662V100.749C104.721 114.004 115.466 124.749 128.721 124.749H399.451C412.706 124.749 423.451 114.004 423.451 100.749V85.9487C423.451 72.6939 412.706 61.9487 399.451 61.9487H137.221C123.966 61.9487 113.221 51.2036 113.221 37.9487V24.3661Z"/>
</mask>
<path fill-rule="evenodd" clip-rule="evenodd" d="M113.221 24.3661C113.221 11.1113 102.475 0.366119 89.2206 0.366119H-15.0103C-28.2651 0.366119 -39.0103 11.1113 -39.0103 24.3661V39.1662C-39.0103 52.4211 -28.2651 63.1662 -15.0103 63.1662H80.7205C93.9754 63.1662 104.721 73.9114 104.721 87.1662V100.749C104.721 114.004 115.466 124.749 128.721 124.749H399.451C412.706 124.749 423.451 114.004 423.451 100.749V85.9487C423.451 72.6939 412.706 61.9487 399.451 61.9487H137.221C123.966 61.9487 113.221 51.2036 113.221 37.9487V24.3661Z" fill="url(#paint0_linear_2421_10818)"/>
<path d="M-15.0103 1.36612H89.2206V-0.633881H-15.0103V1.36612ZM-38.0103 39.1662V24.3661H-40.0103V39.1662H-38.0103ZM80.7205 62.1662H-15.0103V64.1662H80.7205V62.1662ZM105.721 100.749V87.1662H103.721V100.749H105.721ZM399.451 123.749H128.721V125.749H399.451V123.749ZM422.451 85.9487V100.749H424.451V85.9487H422.451ZM137.221 62.9487H399.451V60.9487H137.221V62.9487ZM112.221 24.3661V37.9487H114.221V24.3661H112.221ZM137.221 60.9487C124.518 60.9487 114.221 50.6513 114.221 37.9487H112.221C112.221 51.7559 123.413 62.9487 137.221 62.9487V60.9487ZM424.451 85.9487C424.451 72.1416 413.258 60.9487 399.451 60.9487V62.9487C412.154 62.9487 422.451 73.2462 422.451 85.9487H424.451ZM399.451 125.749C413.258 125.749 424.451 114.556 424.451 100.749H422.451C422.451 113.451 412.154 123.749 399.451 123.749V125.749ZM103.721 100.749C103.721 114.556 114.913 125.749 128.721 125.749V123.749C116.018 123.749 105.721 113.451 105.721 100.749H103.721ZM80.7205 64.1662C93.4231 64.1662 103.721 74.4637 103.721 87.1662H105.721C105.721 73.3591 94.5276 62.1662 80.7205 62.1662V64.1662ZM-40.0103 39.1662C-40.0103 52.9733 -28.8174 64.1662 -15.0103 64.1662V62.1662C-27.7128 62.1662 -38.0103 51.8688 -38.0103 39.1662H-40.0103ZM89.2206 1.36612C101.923 1.36612 112.221 11.6636 112.221 24.3661H114.221C114.221 10.559 103.028 -0.633881 89.2206 -0.633881V1.36612ZM-15.0103 -0.633881C-28.8174 -0.633881 -40.0103 10.559 -40.0103 24.3661H-38.0103C-38.0103 11.6636 -27.7128 1.36612 -15.0103 1.36612V-0.633881Z" fill="white" fill-opacity="0.06" mask="url(#path-1-inside-1_2421_10818)"/>
</g>
<defs>
<linearGradient id="paint0_linear_2421_10818" x1="264.581" y1="0.366123" x2="264.581" y2="126.674" gradientUnits="userSpaceOnUse">
<stop stop-color="#6E19FF"/>
<stop offset="1" stop-color="#DD19FF"/>
</linearGradient>
<clipPath id="clip0_2421_10818">
<rect width="385" height="124" fill="white" transform="translate(0.220459 0.74881)"/>
</clipPath>
</defs>
</svg>
