<svg width="50" height="51" viewBox="0 0 50 51" fill="none" xmlns="http://www.w3.org/2000/svg">
<ellipse cx="24.7205" cy="25.5993" rx="24.5" ry="25" fill="black"/>
<path d="M28.4162 11.8981H36.0781V18.7487H28.4162V11.8981Z" fill="url(#paint0_linear_2420_10209)"/>
<path d="M36.0781 13.0699H37.5203V18.7487L36.0781 18.7487V13.0699Z" fill="url(#paint1_linear_2420_10209)"/>
<path d="M25.9824 11.8981H28.4162L28.4162 13.2502H25.9824V11.8981Z" fill="url(#paint2_linear_2420_10209)"/>
<path d="M24.7205 13.0699H27.0641V14.6023H24.7205V13.0699Z" fill="url(#paint3_linear_2420_10209)"/>
<path d="M24.7205 14.6023L28.4162 14.6023L28.4162 18.7487L24.7205 18.7487V14.6023Z" fill="url(#paint4_linear_2420_10209)"/>
<path d="M24.7205 18.7487L31.0302 18.7487V21.1824H24.7205V18.7487Z" fill="url(#paint5_linear_2420_10209)"/>
<path d="M31.0302 20.281H34.6358V21.1824L31.0302 21.1824L31.0302 20.281Z" fill="url(#paint6_linear_2420_10209)"/>
<path d="M24.7205 21.1824L29.7683 21.1824V29.6555H24.7205V21.1824Z" fill="url(#paint7_linear_2420_10209)"/>
<path d="M29.7683 24.0669H32.202V25.2387H29.7683V24.0669Z" fill="url(#paint8_linear_2420_10209)"/>
<path d="M31.0302 25.2387H32.202L32.202 26.4105H31.0302V25.2387Z" fill="url(#paint9_linear_2420_10209)"/>
<path d="M23.3683 21.4529H24.7204V35.5146H23.3683V21.4529Z" fill="url(#paint10_linear_2420_10209)"/>
<path d="M24.7205 29.6555L25.712 29.6555V39.3005H24.7205V29.6555Z" fill="url(#paint11_linear_2420_10209)"/>
<path d="M25.712 37.9484H27.5148V39.3005L25.712 39.3005L25.712 37.9484Z" fill="url(#paint12_linear_2420_10209)"/>
<path d="M25.712 29.6555H28.4162V31.3682H25.712L25.712 29.6555Z" fill="url(#paint13_linear_2420_10209)"/>
<path d="M25.6219 31.3682H26.974V32.8104H25.6219V31.3682Z" fill="url(#paint14_linear_2420_10209)"/>
<path d="M21.5656 22.7148H23.3684V34.1625H21.5656V22.7148Z" fill="url(#paint15_linear_2420_10209)"/>
<path d="M17.2389 26.6809H21.5656V34.0724H17.2389V26.6809Z" fill="url(#paint16_linear_2420_10209)"/>
<path d="M19.6727 24.0669H21.5656L21.5656 26.6809L19.6727 26.6809V24.0669Z" fill="url(#paint17_linear_2420_10209)"/>
<path d="M18.5008 25.419H19.6726L19.6727 26.6809L18.5008 26.681V25.419Z" fill="url(#paint18_linear_2420_10209)"/>
<path d="M18.2304 34.0724L21.5656 34.0724L21.5656 34.1625L18.2304 34.1625V34.0724Z" fill="url(#paint19_linear_2420_10209)"/>
<path d="M18.2304 34.1625L22.0162 34.1625V35.5146H18.2304V34.1625Z" fill="url(#paint20_linear_2420_10209)"/>
<path d="M18.2304 35.5146L20.8444 35.5146V36.6864H18.2304V35.5146Z" fill="url(#paint21_linear_2420_10209)"/>
<path d="M18.2304 36.6864H19.4022V39.3005H18.2304V36.6864Z" fill="url(#paint22_linear_2420_10209)"/>
<path d="M19.4022 37.9484H21.0248V39.3005H19.4022L19.4022 37.9484Z" fill="url(#paint23_linear_2420_10209)"/>
<path d="M11.9207 21.4529H13.1826V29.0246H11.9207V21.4529Z" fill="url(#paint24_linear_2420_10209)"/>
<path d="M13.1826 23.9768H14.4446V30.0161H13.1826V23.9768Z" fill="url(#paint25_linear_2420_10209)"/>
<path d="M14.4445 25.2387H15.7065V31.3682H14.4445V25.2387Z" fill="url(#paint26_linear_2420_10209)"/>
<path d="M15.7065 26.6809H17.2389L17.2389 31.3682L15.7065 31.3682L15.7065 26.6809Z" fill="url(#paint27_linear_2420_10209)"/>
<defs>
<linearGradient id="paint0_linear_2420_10209" x1="23.8366" y1="19.7153" x2="41.9711" y2="33.4042" gradientUnits="userSpaceOnUse">
<stop stop-color="#6E19FF"/>
<stop offset="1" stop-color="#DD19FF"/>
</linearGradient>
<linearGradient id="paint1_linear_2420_10209" x1="23.8366" y1="19.7153" x2="41.9711" y2="33.4042" gradientUnits="userSpaceOnUse">
<stop stop-color="#6E19FF"/>
<stop offset="1" stop-color="#DD19FF"/>
</linearGradient>
<linearGradient id="paint2_linear_2420_10209" x1="23.8366" y1="19.7153" x2="41.9711" y2="33.4042" gradientUnits="userSpaceOnUse">
<stop stop-color="#6E19FF"/>
<stop offset="1" stop-color="#DD19FF"/>
</linearGradient>
<linearGradient id="paint3_linear_2420_10209" x1="23.8366" y1="19.7153" x2="41.9711" y2="33.4042" gradientUnits="userSpaceOnUse">
<stop stop-color="#6E19FF"/>
<stop offset="1" stop-color="#DD19FF"/>
</linearGradient>
<linearGradient id="paint4_linear_2420_10209" x1="23.8366" y1="19.7153" x2="41.9711" y2="33.4042" gradientUnits="userSpaceOnUse">
<stop stop-color="#6E19FF"/>
<stop offset="1" stop-color="#DD19FF"/>
</linearGradient>
<linearGradient id="paint5_linear_2420_10209" x1="23.8366" y1="19.7153" x2="41.9711" y2="33.4042" gradientUnits="userSpaceOnUse">
<stop stop-color="#6E19FF"/>
<stop offset="1" stop-color="#DD19FF"/>
</linearGradient>
<linearGradient id="paint6_linear_2420_10209" x1="23.8366" y1="19.7153" x2="41.9711" y2="33.4042" gradientUnits="userSpaceOnUse">
<stop stop-color="#6E19FF"/>
<stop offset="1" stop-color="#DD19FF"/>
</linearGradient>
<linearGradient id="paint7_linear_2420_10209" x1="23.8366" y1="19.7153" x2="41.9711" y2="33.4042" gradientUnits="userSpaceOnUse">
<stop stop-color="#6E19FF"/>
<stop offset="1" stop-color="#DD19FF"/>
</linearGradient>
<linearGradient id="paint8_linear_2420_10209" x1="23.8366" y1="19.7153" x2="41.9711" y2="33.4042" gradientUnits="userSpaceOnUse">
<stop stop-color="#6E19FF"/>
<stop offset="1" stop-color="#DD19FF"/>
</linearGradient>
<linearGradient id="paint9_linear_2420_10209" x1="23.8366" y1="19.7153" x2="41.9711" y2="33.4042" gradientUnits="userSpaceOnUse">
<stop stop-color="#6E19FF"/>
<stop offset="1" stop-color="#DD19FF"/>
</linearGradient>
<linearGradient id="paint10_linear_2420_10209" x1="23.8366" y1="19.7153" x2="41.9711" y2="33.4042" gradientUnits="userSpaceOnUse">
<stop stop-color="#6E19FF"/>
<stop offset="1" stop-color="#DD19FF"/>
</linearGradient>
<linearGradient id="paint11_linear_2420_10209" x1="23.8366" y1="19.7153" x2="41.9711" y2="33.4042" gradientUnits="userSpaceOnUse">
<stop stop-color="#6E19FF"/>
<stop offset="1" stop-color="#DD19FF"/>
</linearGradient>
<linearGradient id="paint12_linear_2420_10209" x1="23.8366" y1="19.7153" x2="41.9711" y2="33.4042" gradientUnits="userSpaceOnUse">
<stop stop-color="#6E19FF"/>
<stop offset="1" stop-color="#DD19FF"/>
</linearGradient>
<linearGradient id="paint13_linear_2420_10209" x1="23.8366" y1="19.7153" x2="41.9711" y2="33.4042" gradientUnits="userSpaceOnUse">
<stop stop-color="#6E19FF"/>
<stop offset="1" stop-color="#DD19FF"/>
</linearGradient>
<linearGradient id="paint14_linear_2420_10209" x1="23.8366" y1="19.7153" x2="41.9711" y2="33.4042" gradientUnits="userSpaceOnUse">
<stop stop-color="#6E19FF"/>
<stop offset="1" stop-color="#DD19FF"/>
</linearGradient>
<linearGradient id="paint15_linear_2420_10209" x1="23.8366" y1="19.7153" x2="41.9711" y2="33.4042" gradientUnits="userSpaceOnUse">
<stop stop-color="#6E19FF"/>
<stop offset="1" stop-color="#DD19FF"/>
</linearGradient>
<linearGradient id="paint16_linear_2420_10209" x1="23.8366" y1="19.7153" x2="41.9711" y2="33.4042" gradientUnits="userSpaceOnUse">
<stop stop-color="#6E19FF"/>
<stop offset="1" stop-color="#DD19FF"/>
</linearGradient>
<linearGradient id="paint17_linear_2420_10209" x1="23.8366" y1="19.7153" x2="41.9711" y2="33.4042" gradientUnits="userSpaceOnUse">
<stop stop-color="#6E19FF"/>
<stop offset="1" stop-color="#DD19FF"/>
</linearGradient>
<linearGradient id="paint18_linear_2420_10209" x1="23.8366" y1="19.7153" x2="41.9711" y2="33.4042" gradientUnits="userSpaceOnUse">
<stop stop-color="#6E19FF"/>
<stop offset="1" stop-color="#DD19FF"/>
</linearGradient>
<linearGradient id="paint19_linear_2420_10209" x1="23.8366" y1="19.7153" x2="41.9711" y2="33.4042" gradientUnits="userSpaceOnUse">
<stop stop-color="#6E19FF"/>
<stop offset="1" stop-color="#DD19FF"/>
</linearGradient>
<linearGradient id="paint20_linear_2420_10209" x1="23.8366" y1="19.7153" x2="41.9711" y2="33.4042" gradientUnits="userSpaceOnUse">
<stop stop-color="#6E19FF"/>
<stop offset="1" stop-color="#DD19FF"/>
</linearGradient>
<linearGradient id="paint21_linear_2420_10209" x1="23.8366" y1="19.7153" x2="41.9711" y2="33.4042" gradientUnits="userSpaceOnUse">
<stop stop-color="#6E19FF"/>
<stop offset="1" stop-color="#DD19FF"/>
</linearGradient>
<linearGradient id="paint22_linear_2420_10209" x1="23.8366" y1="19.7153" x2="41.9711" y2="33.4042" gradientUnits="userSpaceOnUse">
<stop stop-color="#6E19FF"/>
<stop offset="1" stop-color="#DD19FF"/>
</linearGradient>
<linearGradient id="paint23_linear_2420_10209" x1="23.8366" y1="19.7153" x2="41.9711" y2="33.4042" gradientUnits="userSpaceOnUse">
<stop stop-color="#6E19FF"/>
<stop offset="1" stop-color="#DD19FF"/>
</linearGradient>
<linearGradient id="paint24_linear_2420_10209" x1="23.8366" y1="19.7153" x2="41.9711" y2="33.4042" gradientUnits="userSpaceOnUse">
<stop stop-color="#6E19FF"/>
<stop offset="1" stop-color="#DD19FF"/>
</linearGradient>
<linearGradient id="paint25_linear_2420_10209" x1="23.8366" y1="19.7153" x2="41.9711" y2="33.4042" gradientUnits="userSpaceOnUse">
<stop stop-color="#6E19FF"/>
<stop offset="1" stop-color="#DD19FF"/>
</linearGradient>
<linearGradient id="paint26_linear_2420_10209" x1="23.8366" y1="19.7153" x2="41.9711" y2="33.4042" gradientUnits="userSpaceOnUse">
<stop stop-color="#6E19FF"/>
<stop offset="1" stop-color="#DD19FF"/>
</linearGradient>
<linearGradient id="paint27_linear_2420_10209" x1="23.8366" y1="19.7153" x2="41.9711" y2="33.4042" gradientUnits="userSpaceOnUse">
<stop stop-color="#6E19FF"/>
<stop offset="1" stop-color="#DD19FF"/>
</linearGradient>
</defs>
</svg>
