<svg width="385" height="126" viewBox="0 0 385 126" fill="none" xmlns="http://www.w3.org/2000/svg">
<g clip-path="url(#clip0_2420_10185)">
<mask id="path-1-inside-1_2420_10185" fill="white">
<path fill-rule="evenodd" clip-rule="evenodd" d="M271.513 24.5142C271.513 11.2594 282.259 0.514191 295.513 0.514191H399.744C412.999 0.514191 423.744 11.2594 423.744 24.5142V39.3143C423.744 52.5691 412.999 63.3143 399.744 63.3143H318.815C305.561 63.3143 294.815 74.0595 294.815 87.3143V100.897C294.815 114.152 284.07 124.897 270.815 124.897H-14.7173C-27.9722 124.897 -38.7173 114.152 -38.7173 100.897V77.5142C-38.7173 64.2594 -27.9722 53.5142 -14.7173 53.5142H247.513C260.768 53.5142 271.513 42.769 271.513 29.5142V24.5142Z"/>
</mask>
<path fill-rule="evenodd" clip-rule="evenodd" d="M271.513 24.5142C271.513 11.2594 282.259 0.514191 295.513 0.514191H399.744C412.999 0.514191 423.744 11.2594 423.744 24.5142V39.3143C423.744 52.5691 412.999 63.3143 399.744 63.3143H318.815C305.561 63.3143 294.815 74.0595 294.815 87.3143V100.897C294.815 114.152 284.07 124.897 270.815 124.897H-14.7173C-27.9722 124.897 -38.7173 114.152 -38.7173 100.897V77.5142C-38.7173 64.2594 -27.9722 53.5142 -14.7173 53.5142H247.513C260.768 53.5142 271.513 42.769 271.513 29.5142V24.5142Z" fill="url(#paint0_linear_2420_10185)"/>
<path d="M399.744 1.51419H295.513V-0.485809H399.744V1.51419ZM422.744 39.3143V24.5142H424.744V39.3143H422.744ZM318.815 62.3143H399.744V64.3143H318.815V62.3143ZM293.815 100.897V87.3143H295.815V100.897H293.815ZM-14.7173 123.897H270.815V125.897H-14.7173V123.897ZM-37.7173 77.5142V100.897H-39.7173V77.5142H-37.7173ZM247.513 54.5142H-14.7173V52.5142H247.513V54.5142ZM272.513 24.5142V29.5142H270.513V24.5142H272.513ZM247.513 52.5142C260.216 52.5142 270.513 42.2167 270.513 29.5142H272.513C272.513 43.3213 261.32 54.5142 247.513 54.5142V52.5142ZM-39.7173 77.5142C-39.7173 63.7071 -28.5245 52.5142 -14.7173 52.5142V54.5142C-27.4199 54.5142 -37.7173 64.8116 -37.7173 77.5142H-39.7173ZM-14.7173 125.897C-28.5245 125.897 -39.7173 114.704 -39.7173 100.897H-37.7173C-37.7173 113.599 -27.4199 123.897 -14.7173 123.897V125.897ZM295.815 100.897C295.815 114.704 284.623 125.897 270.815 125.897V123.897C283.518 123.897 293.815 113.599 293.815 100.897H295.815ZM318.815 64.3143C306.113 64.3143 295.815 74.6117 295.815 87.3143H293.815C293.815 73.5072 305.008 62.3143 318.815 62.3143V64.3143ZM424.744 39.3143C424.744 53.1214 413.551 64.3143 399.744 64.3143V62.3143C412.447 62.3143 422.744 52.0168 422.744 39.3143H424.744ZM295.513 1.51419C282.811 1.51419 272.513 11.8116 272.513 24.5142H270.513C270.513 10.7071 281.706 -0.485809 295.513 -0.485809V1.51419ZM399.744 -0.485809C413.551 -0.485809 424.744 10.7071 424.744 24.5142H422.744C422.744 11.8117 412.447 1.51419 399.744 1.51419V-0.485809Z" fill="white" fill-opacity="0.06" mask="url(#path-1-inside-1_2420_10185)"/>
</g>
<defs>
<linearGradient id="paint0_linear_2420_10185" x1="128.93" y1="47.5608" x2="120.153" y2="126.822" gradientUnits="userSpaceOnUse">
<stop stop-color="#6E19FF"/>
<stop offset="1" stop-color="#DD19FF"/>
</linearGradient>
<clipPath id="clip0_2420_10185">
<rect width="384" height="125" fill="white" transform="translate(0.513428 0.396881)"/>
</clipPath>
</defs>
</svg>
