<svg width="50" height="51" viewBox="0 0 50 51" fill="none" xmlns="http://www.w3.org/2000/svg">
<ellipse cx="24.7205" cy="25.6253" rx="24.5" ry="25" fill="black"/>
<path d="M22.4334 23.2718H14.9517L11.9177 27.0362L14.9517 28.9184V37.4105H24.3598V25.1982C24.3598 24.1348 23.4967 23.2718 22.4334 23.2718ZM19.585 21.3748C21.1462 21.3748 22.4128 20.1082 22.4128 18.5471V13.8401H18.7868C17.6675 13.8401 16.7573 14.7473 16.7573 15.8696V18.5471C16.7573 20.1082 18.0239 21.3748 19.585 21.3748ZM34.5927 24.8152H28.9107C27.4202 24.8152 26.2096 26.0259 26.2096 27.5163V37.4105H34.5897V30.8124L37.5235 28.9184L34.5927 24.8152ZM30.463 23.1245C31.8533 23.1245 32.9814 21.9963 32.9814 20.606V16.4116H29.7531C28.7545 16.4116 27.9445 17.2216 27.9445 18.2201V20.606C27.9445 21.9963 29.0727 23.1245 30.463 23.1245Z" fill="url(#paint0_linear_2420_10211)"/>
<defs>
<linearGradient id="paint0_linear_2420_10211" x1="23.8365" y1="20.5642" x2="39.9192" y2="34.6812" gradientUnits="userSpaceOnUse">
<stop stop-color="#6E19FF"/>
<stop offset="1" stop-color="#DD19FF"/>
</linearGradient>
</defs>
</svg>
