<svg width="54" height="55" viewBox="0 0 54 55" fill="none" xmlns="http://www.w3.org/2000/svg">
<ellipse cx="27" cy="27.0996" rx="27" ry="27" fill="black"/>
<path opacity="0.5" d="M41.2343 21.4311L41.2323 38.638H12.717V30.4908L14.5889 31.2933L15.0166 30.336C18.029 23.8773 21.2899 22.7591 25.8626 26.1443L26.2536 26.4233C32.2724 30.6395 37.4764 28.6862 41.2343 21.4311Z" fill="url(#paint0_linear_2420_10230)"/>
<path d="M39.1121 16.5856C39.2214 16.28 39.5568 16.12 39.8631 16.227L41.2251 16.7032C42.291 17.0758 42.8591 18.2455 42.4332 19.2912C38.6217 28.6487 32.9421 31.5785 26.2538 26.8958L25.8627 26.6168C21.288 23.2316 18.0291 24.3498 15.0167 30.8085V30.8085C14.7794 31.3396 14.1599 31.5819 13.6253 31.3527L12.7316 30.9695C11.6899 30.5229 11.2005 29.309 11.716 28.2997C15.7034 20.4915 21.4054 18.5008 27.8913 23.0565L28.2865 23.3416C32.8224 26.6983 36.0874 24.9181 39.1121 16.5856V16.5856Z" fill="url(#paint1_linear_2420_10230)"/>
<defs>
<linearGradient id="paint0_linear_2420_10230" x1="31.4377" y1="21.4311" x2="31.4377" y2="38.0054" gradientUnits="userSpaceOnUse">
<stop stop-color="#6E19FF"/>
<stop offset="1" stop-color="#DD19FF"/>
</linearGradient>
<linearGradient id="paint1_linear_2420_10230" x1="16.34" y1="25.8117" x2="42.0223" y2="26.3056" gradientUnits="userSpaceOnUse">
<stop stop-color="#6E19FF"/>
<stop offset="1" stop-color="#DD19FF"/>
</linearGradient>
</defs>
</svg>
