<svg width="371" height="393" viewBox="0 0 371 393" fill="none" xmlns="http://www.w3.org/2000/svg">
<path fill-rule="evenodd" clip-rule="evenodd" d="M116.302 40.5605C127.957 40.5605 137.439 31.6827 143.887 21.9731C152.681 8.72984 167.731 0 184.819 0C201.908 0 216.957 8.72983 225.752 21.9731C232.199 31.6827 241.681 40.5605 253.337 40.5605H346.39C359.645 40.5605 370.39 51.3056 370.39 64.5605V368.654C370.39 381.909 359.645 392.654 346.39 392.654H24.8192C11.5644 392.654 0.819214 381.909 0.819214 368.654V64.5605C0.819214 51.3056 11.5644 40.5605 24.8192 40.5605H116.302Z" fill="url(#paint0_linear_2448_8373)"/>
<ellipse cx="255.211" cy="235.242" rx="20.1542" ry="20.0685" fill="url(#paint1_linear_2448_8373)"/>
<ellipse cx="148.256" cy="302.174" rx="12.6221" ry="12.5685" fill="url(#paint2_linear_2448_8373)"/>
<path d="M160.378 302.174C160.378 308.837 154.953 314.242 148.256 314.242C141.559 314.242 136.134 308.837 136.134 302.174C136.134 295.511 141.559 290.105 148.256 290.105C154.953 290.105 160.378 295.511 160.378 302.174Z" stroke="white" stroke-opacity="0.06"/>
<ellipse cx="89.2447" cy="40.0125" rx="20.4846" ry="20.3975" fill="url(#paint3_linear_2448_8373)"/>
<ellipse cx="296.032" cy="100.492" rx="19.8347" ry="19.7504" fill="url(#paint4_linear_2448_8373)"/>
<ellipse cx="69.4661" cy="160.766" rx="14.5856" ry="14.5236" fill="url(#paint5_linear_2448_8373)"/>
<defs>
<linearGradient id="paint0_linear_2448_8373" x1="235.415" y1="148.846" x2="328.474" y2="360.96" gradientUnits="userSpaceOnUse">
<stop stop-color="#6E19FF"/>
<stop offset="1" stop-color="#DD19FF"/>
</linearGradient>
<linearGradient id="paint1_linear_2448_8373" x1="260.753" y1="230.355" x2="269.84" y2="252.52" gradientUnits="userSpaceOnUse">
<stop stop-color="#6E19FF"/>
<stop offset="1" stop-color="#DD19FF"/>
</linearGradient>
<linearGradient id="paint2_linear_2448_8373" x1="141.169" y1="297.437" x2="155.087" y2="308.726" gradientUnits="userSpaceOnUse">
<stop stop-color="#5E00FF"/>
<stop offset="1" stop-color="#FF8C00"/>
</linearGradient>
<linearGradient id="paint3_linear_2448_8373" x1="94.8775" y1="35.0453" x2="104.114" y2="57.5735" gradientUnits="userSpaceOnUse">
<stop stop-color="#5E00FF"/>
<stop offset="1" stop-color="#DD19FF"/>
</linearGradient>
<linearGradient id="paint4_linear_2448_8373" x1="289.085" y1="94.0574" x2="306.77" y2="110.773" gradientUnits="userSpaceOnUse">
<stop stop-color="#5E00FF"/>
<stop offset="1" stop-color="#FF8C00"/>
</linearGradient>
<linearGradient id="paint5_linear_2448_8373" x1="73.4768" y1="157.229" x2="80.0532" y2="173.27" gradientUnits="userSpaceOnUse">
<stop stop-color="#5E00FF"/>
<stop offset="1" stop-color="#DD19FF"/>
</linearGradient>
</defs>
</svg>
