<svg width="370" height="394" viewBox="0 0 370 394" fill="none" xmlns="http://www.w3.org/2000/svg">
<mask id="path-1-inside-1_2420_10205" fill="white">
<path fill-rule="evenodd" clip-rule="evenodd" d="M115.572 41.2886C127.227 41.2886 136.709 32.4108 143.156 22.7012C151.951 9.45792 167 0.728088 184.089 0.728088C201.177 0.728088 216.227 9.45792 225.021 22.7012C231.469 32.4108 240.951 41.2886 252.606 41.2886H345.659C358.914 41.2886 369.659 52.0337 369.659 65.2886V369.383C369.659 382.637 358.914 393.383 345.659 393.383H24.0889C10.834 393.383 0.0888672 382.637 0.0888672 369.383V65.2886C0.0888672 52.0337 10.834 41.2886 24.0889 41.2886H115.572Z"/>
</mask>
<path fill-rule="evenodd" clip-rule="evenodd" d="M115.572 41.2886C127.227 41.2886 136.709 32.4108 143.156 22.7012C151.951 9.45792 167 0.728088 184.089 0.728088C201.177 0.728088 216.227 9.45792 225.021 22.7012C231.469 32.4108 240.951 41.2886 252.606 41.2886H345.659C358.914 41.2886 369.659 52.0337 369.659 65.2886V369.383C369.659 382.637 358.914 393.383 345.659 393.383H24.0889C10.834 393.383 0.0888672 382.637 0.0888672 369.383V65.2886C0.0888672 52.0337 10.834 41.2886 24.0889 41.2886H115.572Z" fill="url(#paint0_linear_2420_10205)"/>
<path d="M143.156 22.7012L142.323 22.148L143.156 22.7012ZM143.99 23.2544C152.606 10.2783 167.349 1.72809 184.089 1.72809V-0.271912C166.651 -0.271912 151.295 8.63754 142.323 22.148L143.99 23.2544ZM184.089 1.72809C200.828 1.72809 215.571 10.2783 224.188 23.2544L225.854 22.148C216.883 8.63754 201.526 -0.271912 184.089 -0.271912V1.72809ZM252.606 42.2886H345.659V40.2886H252.606V42.2886ZM345.659 42.2886C358.362 42.2886 368.659 52.586 368.659 65.2886H370.659C370.659 51.4814 359.467 40.2886 345.659 40.2886V42.2886ZM368.659 65.2886V369.383H370.659V65.2886H368.659ZM368.659 369.383C368.659 382.085 358.362 392.383 345.659 392.383V394.383C359.467 394.383 370.659 383.19 370.659 369.383H368.659ZM345.659 392.383H24.0889V394.383H345.659V392.383ZM24.0889 392.383C11.3863 392.383 1.08887 382.085 1.08887 369.383H-0.911133C-0.911133 383.19 10.2818 394.383 24.0889 394.383V392.383ZM1.08887 369.383V65.2886H-0.911133V369.383H1.08887ZM1.08887 65.2886C1.08887 52.586 11.3863 42.2886 24.0889 42.2886V40.2886C10.2817 40.2886 -0.911133 51.4815 -0.911133 65.2886H1.08887ZM24.0889 42.2886H115.572V40.2886H24.0889V42.2886ZM224.188 23.2544C230.684 33.0356 240.426 42.2886 252.606 42.2886V40.2886C241.475 40.2886 232.254 31.7859 225.854 22.148L224.188 23.2544ZM142.323 22.148C135.923 31.7859 126.703 40.2886 115.572 40.2886V42.2886C127.751 42.2886 137.494 33.0356 143.99 23.2544L142.323 22.148Z" fill="white" fill-opacity="0.06" mask="url(#path-1-inside-1_2420_10205)"/>
<defs>
<linearGradient id="paint0_linear_2420_10205" x1="234.685" y1="149.574" x2="327.744" y2="361.688" gradientUnits="userSpaceOnUse">
<stop stop-color="#6E19FF"/>
<stop offset="1" stop-color="#DD19FF"/>
</linearGradient>
</defs>
</svg>
